<svg width="322" height="321" viewBox="0 0 322 321" fill="none" xmlns="http://www.w3.org/2000/svg">
<path d="M160.914 0C129.17 0 98.1392 9.41316 71.7451 27.0491C45.351 44.6851 24.7793 69.7518 12.6315 99.0793C0.483602 128.407 -2.69483 160.678 3.4981 191.812C9.69102 222.946 24.9772 251.544 47.4235 273.991C69.8698 296.437 98.4682 311.723 129.602 317.916C160.736 324.109 193.007 320.93 222.335 308.783C251.662 296.635 276.729 276.063 294.365 249.669C312.001 223.275 321.414 192.244 321.414 160.5C321.366 117.947 304.441 77.1514 274.352 47.0622C244.263 16.973 203.467 0.0478758 160.914 0ZM160.914 308.16C131.71 308.16 103.161 299.5 78.8786 283.275C54.5961 267.05 35.6701 243.988 24.4941 217.007C13.318 190.026 10.3939 160.336 16.0914 131.693C21.7889 103.05 35.8521 76.7392 56.5027 56.0886C77.1534 35.438 103.464 21.3747 132.107 15.6772C160.75 9.97975 190.44 12.9039 217.421 24.0799C244.402 35.256 267.464 54.1819 283.689 78.4645C299.914 102.747 308.574 131.296 308.574 160.5C308.53 199.648 292.958 237.18 265.276 264.862C237.594 292.544 200.062 308.115 160.914 308.16ZM173.754 89.88V237.54C173.754 239.243 173.078 240.876 171.874 242.08C170.67 243.284 169.037 243.96 167.334 243.96C165.631 243.96 163.998 243.284 162.794 242.08C161.59 240.876 160.914 239.243 160.914 237.54V101.874L132.374 120.892C131.672 121.36 130.885 121.684 130.058 121.848C129.231 122.011 128.38 122.01 127.553 121.844C126.726 121.679 125.94 121.352 125.24 120.882C124.539 120.413 123.938 119.81 123.471 119.109C122.527 117.691 122.184 115.957 122.519 114.288C122.853 112.618 123.837 111.15 125.255 110.206L163.775 84.5368C164.742 83.8928 165.865 83.5232 167.026 83.4675C168.186 83.4117 169.34 83.6719 170.364 84.2203C171.388 84.7687 172.245 85.5848 172.842 86.5815C173.439 87.5782 173.754 88.7182 173.754 89.88Z" fill="black"/>
</svg>
