<svg width="310" height="310" viewBox="0 0 310 310" fill="none" xmlns="http://www.w3.org/2000/svg">
<path d="M155 0C124.344 0 94.3763 9.09059 68.8867 26.1222C43.3971 43.1538 23.5303 67.3615 11.7987 95.684C0.0671566 124.007 -3.00236 155.172 2.97835 185.239C8.95906 215.306 23.7214 242.924 45.3985 264.601C67.0756 286.279 94.694 301.041 124.761 307.022C154.828 313.002 185.993 309.933 214.316 298.201C242.638 286.47 266.846 266.603 283.878 241.113C300.909 215.624 310 185.656 310 155C309.954 113.906 293.609 74.5076 264.55 45.4495C235.492 16.3914 196.094 0.0462352 155 0ZM155 297.6C126.796 297.6 99.2262 289.237 75.7757 273.568C52.3253 257.898 34.0479 235.627 23.2548 209.571C12.4618 183.514 9.63783 154.842 15.1401 127.18C20.6423 99.5184 34.2237 74.1095 54.1666 54.1666C74.1096 34.2236 99.5185 20.6423 127.18 15.14C154.842 9.63776 183.514 12.4617 209.571 23.2548C235.627 34.0478 257.898 52.3252 273.568 75.7757C289.237 99.2261 297.6 126.796 297.6 155C297.557 192.807 282.519 229.053 255.786 255.786C229.053 282.519 192.807 297.557 155 297.6ZM190.809 142.317L130.202 223.191H192.2C193.844 223.191 195.421 223.844 196.584 225.007C197.747 226.17 198.4 227.747 198.4 229.391C198.4 231.035 197.747 232.612 196.584 233.775C195.421 234.938 193.844 235.591 192.2 235.591H118.142C118.029 235.597 117.914 235.6 117.799 235.6C116.633 235.599 115.491 235.27 114.504 234.65C113.516 234.03 112.724 233.144 112.217 232.094C111.71 231.044 111.509 229.873 111.638 228.714C111.766 227.556 112.218 226.457 112.943 225.543L180.79 135.009C183.185 131.417 184.804 127.364 185.543 123.11C186.281 118.856 186.123 114.495 185.079 110.305C184.034 106.116 182.126 102.191 179.477 98.7819C176.828 95.3725 173.496 92.5541 169.695 90.5069C165.893 88.4598 161.706 87.2291 157.402 86.8937C153.097 86.5583 148.77 87.1256 144.697 88.5592C140.625 89.9929 136.897 92.2612 133.751 95.2191C130.606 98.1769 128.113 101.759 126.433 105.736C125.792 107.25 124.576 108.448 123.052 109.066C121.528 109.683 119.821 109.67 118.307 109.03C116.793 108.389 115.595 107.173 114.977 105.649C114.36 104.125 114.373 102.419 115.013 100.904C117.37 95.3288 120.867 90.3078 125.28 86.164C129.693 82.0202 134.923 78.8451 140.636 76.8427C146.348 74.8404 152.417 74.055 158.451 74.537C164.485 75.0191 170.351 76.7579 175.673 79.6418C180.996 82.5256 185.656 86.4908 189.355 91.2827C193.053 96.0745 195.709 101.587 197.151 107.466C198.593 113.345 198.789 119.461 197.727 125.42C196.665 131.38 194.368 137.051 190.985 142.07C190.929 142.153 190.87 142.237 190.809 142.317Z" fill="black"/>
</svg>
