<svg width="23" height="23" viewBox="0 0 23 23" fill="none" xmlns="http://www.w3.org/2000/svg">
<path d="M11.6897 0.832031C9.57083 0.832031 7.49956 1.46034 5.7378 2.63752C3.97603 3.81469 2.6029 5.48785 1.79205 7.44542C0.981204 9.40298 0.769049 11.557 1.18242 13.6352C1.59578 15.7133 2.61611 17.6222 4.11437 19.1205C5.61262 20.6187 7.52152 21.639 9.59966 22.0524C11.6778 22.4658 13.8318 22.2536 15.7894 21.4428C17.747 20.6319 19.4201 19.2588 20.5973 17.497C21.7745 15.7353 22.4028 13.664 22.4028 11.5451C22.3996 8.70483 21.2699 5.98177 19.2615 3.97336C17.2531 1.96495 14.53 0.835227 11.6897 0.832031ZM11.6897 21.4012C9.74034 21.4012 7.83477 20.8232 6.21395 19.7402C4.59312 18.6572 3.32985 17.1179 2.58386 15.3169C1.83788 13.5159 1.6427 11.5342 2.023 9.62232C2.4033 7.71043 3.342 5.95425 4.72039 4.57586C6.09879 3.19746 7.85497 2.25876 9.76686 1.87846C11.6788 1.49816 13.6605 1.69335 15.4614 2.43933C17.2624 3.18531 18.8017 4.44859 19.8847 6.06941C20.9677 7.69023 21.5457 9.5958 21.5457 11.5451C21.5428 14.1582 20.5034 16.6634 18.6557 18.5112C16.808 20.3589 14.3028 21.3982 11.6897 21.4012ZM12.5467 6.83138V16.6874C12.5467 16.8011 12.5016 16.9101 12.4212 16.9905C12.3409 17.0708 12.2319 17.116 12.1182 17.116C12.0046 17.116 11.8956 17.0708 11.8152 16.9905C11.7348 16.9101 11.6897 16.8011 11.6897 16.6874V7.63193L9.78465 8.90139C9.73782 8.9326 9.68529 8.95427 9.63008 8.96517C9.57487 8.97607 9.51805 8.97599 9.46287 8.96494C9.40769 8.95388 9.35523 8.93206 9.30848 8.90073C9.26173 8.8694 9.22161 8.82917 9.19041 8.78234C9.1274 8.68775 9.10454 8.572 9.12687 8.46056C9.14919 8.34911 9.21488 8.25111 9.30947 8.18809L11.8806 6.47473C11.9452 6.43174 12.0202 6.40707 12.0976 6.40335C12.1751 6.39963 12.2521 6.417 12.3205 6.4536C12.3888 6.49021 12.446 6.54468 12.4858 6.61121C12.5257 6.67773 12.5467 6.75383 12.5467 6.83138Z" fill="black"/>
</svg>
