<svg width="22" height="22" viewBox="0 0 22 22" fill="none" xmlns="http://www.w3.org/2000/svg">
<path d="M10.8577 0.953125C8.81148 0.953125 6.81118 1.55991 5.10979 2.69674C3.4084 3.83357 2.08233 5.4494 1.29927 7.33988C0.516201 9.23037 0.311316 11.3106 0.710519 13.3175C1.10972 15.3245 2.09508 17.1679 3.542 18.6149C4.98891 20.0618 6.83239 21.0471 8.83932 21.4463C10.8462 21.8455 12.9265 21.6406 14.817 20.8576C16.7074 20.0745 18.3233 18.7484 19.4601 17.0471C20.5969 15.3457 21.2037 13.3454 21.2037 11.2991C21.2006 8.55614 20.1096 5.92639 18.17 3.98681C16.2305 2.04722 13.6007 0.956211 10.8577 0.953125ZM10.8577 20.8174C8.97518 20.8174 7.13491 20.2592 5.56963 19.2133C4.00435 18.1674 2.78436 16.6809 2.06394 14.9416C1.34352 13.2024 1.15503 11.2886 1.5223 9.44219C1.88956 7.59582 2.79609 5.89982 4.12725 4.56866C5.45842 3.23749 7.15442 2.33096 9.00079 1.9637C10.8472 1.59643 12.761 1.78492 14.5002 2.50534C16.2395 3.22576 17.726 4.44575 18.7719 6.01103C19.8178 7.57631 20.376 9.41658 20.376 11.2991C20.3732 13.8227 19.3694 16.242 17.585 18.0264C15.8006 19.8108 13.3813 20.8146 10.8577 20.8174ZM13.2479 10.4526L9.20247 15.8508H13.3408C13.4505 15.8508 13.5558 15.8944 13.6334 15.972C13.711 16.0496 13.7546 16.1548 13.7546 16.2646C13.7546 16.3744 13.711 16.4796 13.6334 16.5572C13.5558 16.6348 13.4505 16.6784 13.3408 16.6784H8.39752C8.38994 16.6788 8.38226 16.679 8.37458 16.679C8.29677 16.679 8.22055 16.657 8.15465 16.6156C8.08876 16.5742 8.03586 16.5151 8.00203 16.445C7.9682 16.375 7.95479 16.2968 7.96336 16.2194C7.97193 16.1421 8.00211 16.0687 8.05046 16.0078L12.5792 9.96475C12.739 9.72498 12.8471 9.45446 12.8964 9.17052C12.9457 8.88658 12.9351 8.59547 12.8654 8.31584C12.7957 8.03621 12.6684 7.77422 12.4915 7.54666C12.3147 7.31909 12.0923 7.13096 11.8386 6.99432C11.5848 6.85767 11.3053 6.77553 11.018 6.75314C10.7307 6.73075 10.4419 6.76862 10.17 6.86431C9.8982 6.96 9.64935 7.11141 9.43941 7.30885C9.22947 7.50628 9.06308 7.74538 8.95089 8.01083C8.90812 8.11191 8.82695 8.19186 8.72524 8.23309C8.62353 8.27432 8.5096 8.27345 8.40853 8.23069C8.30745 8.18792 8.22751 8.10675 8.18628 8.00504C8.14505 7.90333 8.14591 7.78941 8.18868 7.68833C8.346 7.31617 8.57943 6.98103 8.87396 6.70443C9.1685 6.42784 9.51763 6.21591 9.89893 6.08225C10.2802 5.9486 10.6853 5.89618 11.088 5.92835C11.4908 5.96053 11.8824 6.07659 12.2376 6.26908C12.5929 6.46158 12.9039 6.72625 13.1508 7.0461C13.3977 7.36594 13.575 7.73389 13.6712 8.12631C13.7675 8.51873 13.7806 8.92694 13.7097 9.32472C13.6388 9.7225 13.4855 10.1011 13.2596 10.4361C13.2559 10.4416 13.252 10.4472 13.2479 10.4526Z" fill="black"/>
</svg>
