<svg width="310" height="310" viewBox="0 0 310 310" fill="none" xmlns="http://www.w3.org/2000/svg">
<path d="M155 0C124.344 0 94.3763 9.09059 68.8867 26.1222C43.3971 43.1538 23.5303 67.3615 11.7987 95.684C0.0671566 124.007 -3.00236 155.172 2.97835 185.239C8.95906 215.306 23.7214 242.924 45.3985 264.601C67.0756 286.279 94.694 301.041 124.761 307.022C154.828 313.002 185.993 309.933 214.316 298.201C242.638 286.47 266.846 266.603 283.878 241.113C300.909 215.624 310 185.656 310 155C309.954 113.906 293.609 74.5076 264.55 45.4495C235.492 16.3914 196.094 0.0462352 155 0ZM155 297.6C126.796 297.6 99.2262 289.237 75.7757 273.568C52.3253 257.898 34.0479 235.627 23.2548 209.571C12.4618 183.514 9.63783 154.842 15.1401 127.18C20.6423 99.5184 34.2237 74.1095 54.1666 54.1666C74.1096 34.2236 99.5185 20.6423 127.18 15.14C154.842 9.63776 183.514 12.4617 209.571 23.2548C235.627 34.0478 257.898 52.3252 273.568 75.7757C289.237 99.2261 297.6 126.796 297.6 155C297.557 192.807 282.519 229.053 255.786 255.786C229.053 282.519 192.807 297.557 155 297.6ZM183.878 157.128C188.484 161.734 192.137 167.202 194.63 173.22C197.122 179.237 198.405 185.687 198.405 192.201C198.405 198.714 197.122 205.164 194.629 211.181C192.136 217.199 188.483 222.667 183.877 227.272C179.271 231.878 173.804 235.532 167.786 238.024C161.768 240.517 155.318 241.8 148.805 241.8C142.291 241.799 135.842 240.516 129.824 238.024C123.806 235.531 118.339 231.878 113.733 227.272C113.157 226.696 112.701 226.013 112.389 225.261C112.077 224.508 111.917 223.702 111.917 222.888C111.917 222.074 112.077 221.268 112.389 220.516C112.701 219.764 113.157 219.08 113.733 218.505C114.309 217.929 114.992 217.472 115.744 217.161C116.496 216.849 117.302 216.689 118.116 216.689C118.931 216.689 119.737 216.849 120.489 217.161C121.241 217.472 121.924 217.929 122.5 218.505C126.826 222.83 132.152 226.022 138.006 227.798C143.86 229.574 150.061 229.878 156.061 228.685C162.061 227.491 167.674 224.836 172.403 220.955C177.132 217.074 180.831 212.087 183.172 206.435C185.513 200.784 186.424 194.642 185.824 188.554C185.225 182.466 183.133 176.62 179.734 171.533C176.336 166.447 171.735 162.277 166.34 159.393C160.945 156.509 154.922 155 148.805 155C147.671 155 146.558 154.689 145.589 154.101C144.619 153.513 143.829 152.67 143.305 151.664C142.782 150.658 142.544 149.528 142.618 148.396C142.692 147.265 143.074 146.175 143.725 145.246L180.29 92.9878H117.796C116.151 92.9878 114.574 92.3346 113.411 91.1719C112.249 90.0092 111.595 88.4322 111.595 86.7878C111.595 85.1435 112.249 83.5665 113.411 82.4038C114.574 81.241 116.151 80.5878 117.796 80.5878H192.195C193.33 80.5877 194.442 80.8987 195.411 81.4869C196.381 82.0751 197.171 82.918 197.695 83.9238C198.218 84.9296 198.456 86.0599 198.382 87.1915C198.308 88.3231 197.926 89.4128 197.275 90.342L159.851 143.828C168.959 145.894 177.292 150.507 183.878 157.128Z" fill="black"/>
</svg>
