<svg width="22" height="22" viewBox="0 0 22 22" fill="none" xmlns="http://www.w3.org/2000/svg">
<path d="M10.8577 0.417969C8.81148 0.417969 6.81118 1.02475 5.10979 2.16158C3.4084 3.29842 2.08233 4.91424 1.29927 6.80473C0.516201 8.69521 0.311316 10.7754 0.710519 12.7824C1.10972 14.7893 2.09508 16.6328 3.542 18.0797C4.98891 19.5266 6.83239 20.512 8.83932 20.9112C10.8462 21.3104 12.9265 21.1055 14.817 20.3224C16.7074 19.5394 18.3233 18.2133 19.4601 16.5119C20.5969 14.8105 21.2037 12.8102 21.2037 10.764C21.2006 8.02099 20.1096 5.39123 18.17 3.45165C16.2305 1.51207 13.6007 0.421055 10.8577 0.417969ZM10.8577 20.2823C8.97518 20.2823 7.13491 19.724 5.56963 18.6782C4.00435 17.6323 2.78436 16.1457 2.06394 14.4065C1.34352 12.6672 1.15503 10.7534 1.5223 8.90704C1.88956 7.06066 2.79609 5.36466 4.12725 4.0335C5.45842 2.70234 7.15442 1.79581 9.00079 1.42854C10.8472 1.06127 12.761 1.24977 14.5002 1.97019C16.2395 2.69061 17.726 3.91059 18.7719 5.47587C19.8178 7.04115 20.376 8.88142 20.376 10.764C20.3732 13.2875 19.3694 15.7069 17.585 17.4913C15.8006 19.2757 13.3813 20.2794 10.8577 20.2823ZM12.7853 10.906C13.0927 11.2135 13.3366 11.5784 13.5029 11.9801C13.6693 12.3818 13.7549 12.8123 13.7549 13.247C13.7549 13.6818 13.6693 14.1123 13.5029 14.514C13.3365 14.9157 13.0927 15.2806 12.7852 15.588C12.4778 15.8955 12.1128 16.1393 11.7112 16.3057C11.3095 16.4721 10.879 16.5577 10.4442 16.5577C10.0094 16.5577 9.57893 16.4721 9.17726 16.3057C8.77559 16.1393 8.41063 15.8954 8.1032 15.588C8.06478 15.5496 8.0343 15.504 8.0135 15.4538C7.99271 15.4035 7.98201 15.3497 7.98201 15.2954C7.98201 15.2411 7.99271 15.1873 8.0135 15.137C8.0343 15.0868 8.06478 15.0412 8.1032 15.0028C8.14163 14.9644 8.18724 14.9339 8.23745 14.9131C8.28765 14.8923 8.34146 14.8816 8.3958 14.8816C8.45014 14.8816 8.50395 14.8923 8.55415 14.9131C8.60436 14.9339 8.64997 14.9644 8.6884 15.0028C8.97714 15.2915 9.33263 15.5046 9.72338 15.6231C10.1141 15.7416 10.5281 15.762 10.9286 15.6823C11.329 15.6026 11.7037 15.4254 12.0193 15.1664C12.335 14.9073 12.5819 14.5745 12.7381 14.1972C12.8944 13.82 12.9552 13.41 12.9152 13.0036C12.8752 12.5973 12.7355 12.207 12.5087 11.8675C12.2818 11.528 11.9748 11.2497 11.6147 11.0572C11.2545 10.8647 10.8525 10.764 10.4442 10.764C10.3685 10.764 10.2942 10.7432 10.2295 10.704C10.1648 10.6647 10.1121 10.6084 10.0771 10.5413C10.0422 10.4742 10.0263 10.3987 10.0312 10.3232C10.0362 10.2476 10.0617 10.1749 10.1051 10.1129L12.5458 6.62476H8.37438C8.26462 6.62476 8.15936 6.58116 8.08175 6.50355C8.00414 6.42594 7.96054 6.32067 7.96054 6.21092C7.96054 6.10116 8.00414 5.9959 8.08175 5.91829C8.15936 5.84068 8.26462 5.79708 8.37438 5.79708H13.3405C13.4162 5.79707 13.4904 5.81783 13.5551 5.85709C13.6198 5.89635 13.6726 5.95261 13.7075 6.01975C13.7425 6.08688 13.7584 6.16233 13.7534 6.23786C13.7485 6.3134 13.7229 6.38613 13.6795 6.44815L11.1815 10.0182C11.7895 10.1562 12.3456 10.4641 12.7853 10.906Z" fill="black"/>
</svg>
