<svg width="22" height="22" viewBox="0 0 22 22" fill="none" xmlns="http://www.w3.org/2000/svg">
<path d="M10.8929 0.953125C8.84663 0.953125 6.84634 1.55991 5.14495 2.69674C3.44356 3.83357 2.11749 5.4494 1.33442 7.33988C0.551358 9.23037 0.346473 11.3106 0.745675 13.3175C1.14488 15.3245 2.13024 17.1679 3.57715 18.6149C5.02407 20.0618 6.86755 21.0471 8.87447 21.4463C10.8814 21.8455 12.9616 21.6406 14.8521 20.8576C16.7426 20.0745 18.3584 18.7484 19.4953 17.0471C20.6321 15.3457 21.2389 13.3454 21.2389 11.2991C21.2358 8.55614 20.1448 5.92639 18.2052 3.98681C16.2656 2.04722 13.6359 0.956211 10.8929 0.953125ZM10.8929 20.8174C9.01033 20.8174 7.17006 20.2592 5.60478 19.2133C4.0395 18.1674 2.81952 16.6809 2.0991 14.9416C1.37868 13.2024 1.19018 11.2886 1.55745 9.44219C1.92472 7.59582 2.83125 5.89982 4.16241 4.56866C5.49357 3.23749 7.18957 2.33096 9.03595 1.9637C10.8823 1.59643 12.7961 1.78492 14.5354 2.50534C16.2746 3.22576 17.7612 4.44575 18.8071 6.01103C19.853 7.57631 20.4112 9.41658 20.4112 11.2991C20.4083 13.8227 19.4046 16.242 17.6202 18.0264C15.8358 19.8108 13.4164 20.8146 10.8929 20.8174ZM9.57245 7.16072L8.97756 10.8209C9.60191 10.5104 10.3078 10.4032 10.9962 10.5143C11.6846 10.6254 12.321 10.9494 12.8159 11.4406C13.4343 12.0641 13.7801 12.9075 13.7776 13.7856C13.7751 14.6638 13.4244 15.5051 12.8024 16.1251C12.1805 16.7451 11.338 17.0931 10.4598 17.0929C9.58167 17.0926 8.73943 16.7441 8.11785 16.1238C8.04008 16.0463 7.99627 15.9412 7.99604 15.8314C7.99581 15.7217 8.03919 15.6163 8.11663 15.5386C8.19407 15.4608 8.29924 15.417 8.40898 15.4168C8.51873 15.4165 8.62407 15.4599 8.70183 15.5373C9.04901 15.8847 9.49142 16.1214 9.9731 16.2173C10.4548 16.3132 10.9541 16.2641 11.4079 16.0763C11.8616 15.8884 12.2495 15.5701 12.5224 15.1618C12.7953 14.7535 12.941 14.2733 12.941 13.7822C12.941 13.2911 12.7953 12.811 12.5224 12.4026C12.2495 11.9943 11.8616 11.676 11.4079 11.4882C10.9541 11.3003 10.4548 11.2512 9.9731 11.3471C9.49142 11.4431 9.04901 11.6797 8.70183 12.0271C8.63987 12.0888 8.55994 12.1293 8.47351 12.1428C8.38709 12.1563 8.29862 12.142 8.22081 12.1021C8.143 12.0621 8.07985 11.9985 8.04042 11.9205C8.00099 11.8424 7.98731 11.7538 8.00135 11.6675L8.81196 6.6805C8.82771 6.58352 8.87745 6.4953 8.95229 6.43164C9.02714 6.36798 9.12219 6.33303 9.22045 6.33304H13.3759C13.4857 6.33304 13.5909 6.37665 13.6685 6.45426C13.7462 6.53187 13.7898 6.63713 13.7898 6.74688C13.7898 6.85664 13.7462 6.9619 13.6685 7.03951C13.5909 7.11712 13.4857 7.16072 13.3759 7.16072H9.57245Z" fill="black"/>
</svg>
