<svg width="310" height="310" viewBox="0 0 310 310" fill="none" xmlns="http://www.w3.org/2000/svg">
<path d="M155 0C124.344 0 94.3763 9.09059 68.8867 26.1222C43.3971 43.1538 23.5303 67.3615 11.7987 95.684C0.0671566 124.007 -3.00236 155.172 2.97835 185.239C8.95906 215.306 23.7214 242.924 45.3985 264.601C67.0756 286.279 94.694 301.041 124.761 307.022C154.828 313.002 185.993 309.933 214.316 298.201C242.638 286.47 266.846 266.603 283.878 241.113C300.909 215.624 310 185.656 310 155C309.954 113.906 293.609 74.5076 264.55 45.4495C235.492 16.3914 196.094 0.0462352 155 0ZM155 297.6C126.796 297.6 99.2262 289.237 75.7757 273.568C52.3253 257.898 34.0479 235.627 23.2548 209.571C12.4618 183.514 9.63783 154.842 15.1401 127.18C20.6423 99.5184 34.2237 74.1095 54.1666 54.1666C74.1096 34.2236 99.5185 20.6423 127.18 15.14C154.842 9.63776 183.514 12.4617 209.571 23.2548C235.627 34.0478 257.898 52.3252 273.568 75.7757C289.237 99.2261 297.6 126.796 297.6 155C297.557 192.807 282.519 229.053 255.786 255.786C229.053 282.519 192.807 297.557 155 297.6ZM135.218 93L126.305 147.836C135.659 143.184 146.235 141.577 156.548 143.242C166.862 144.907 176.395 149.76 183.81 157.119C193.074 166.461 198.255 179.095 198.218 192.252C198.18 205.408 192.926 218.013 183.608 227.301C174.29 236.59 161.669 241.804 148.513 241.8C135.356 241.796 122.738 236.575 113.426 227.281C112.26 226.121 111.604 224.545 111.601 222.901C111.597 221.257 112.247 219.679 113.407 218.514C114.568 217.349 116.143 216.692 117.787 216.689C119.431 216.685 121.01 217.335 122.175 218.495C127.376 223.7 134.004 227.245 141.22 228.682C148.437 230.119 155.917 229.384 162.715 226.569C169.514 223.755 175.325 218.987 179.413 212.869C183.501 206.751 185.684 199.559 185.684 192.201C185.684 184.843 183.501 177.65 179.413 171.532C175.325 165.415 169.514 160.647 162.715 157.832C155.917 155.017 148.437 154.282 141.22 155.719C134.004 157.156 127.376 160.701 122.175 165.906C121.246 166.831 120.049 167.438 118.754 167.639C117.459 167.841 116.134 167.628 114.968 167.029C113.802 166.431 112.856 165.478 112.266 164.309C111.675 163.139 111.47 161.812 111.68 160.519L123.825 85.8055C124.06 84.3524 124.806 83.0308 125.927 82.077C127.048 81.1233 128.472 80.5997 129.944 80.6H192.2C193.844 80.6 195.421 81.2532 196.584 82.4159C197.747 83.5786 198.4 85.1556 198.4 86.8C198.4 88.4443 197.747 90.0213 196.584 91.184C195.421 92.3468 193.844 93 192.2 93H135.218Z" fill="black"/>
</svg>
