<svg width="164" height="164" viewBox="0 0 164 164" fill="none" xmlns="http://www.w3.org/2000/svg">
<path d="M82.0013 13.666C68.4863 13.666 55.2747 17.6737 44.0374 25.1823C32.8 32.6908 24.0416 43.363 18.8696 55.8493C13.6976 68.3356 12.3443 82.0751 14.981 95.3305C17.6177 108.586 24.1258 120.762 33.6824 130.318C43.239 139.875 55.4148 146.383 68.6702 149.02C81.9255 151.656 95.6651 150.303 108.151 145.131C120.638 139.959 131.31 131.201 138.818 119.963C146.327 108.726 150.335 95.5144 150.335 81.9993C150.335 73.0257 148.567 64.1399 145.133 55.8493C141.699 47.5587 136.666 40.0257 130.32 33.6804C123.975 27.335 116.442 22.3017 108.151 18.8676C99.8608 15.4335 90.975 13.666 82.0013 13.666ZM82.0013 136.666C71.1893 136.666 60.62 133.46 51.6302 127.453C42.6403 121.446 35.6335 112.908 31.4959 102.919C27.3583 92.9303 26.2757 81.9387 28.3851 71.3344C30.4944 60.7301 35.7009 50.9894 43.3462 43.3442C50.9914 35.6989 60.7321 30.4924 71.3364 28.3831C81.9407 26.2738 92.9323 27.3563 102.921 31.4939C112.91 35.6315 121.448 42.6383 127.455 51.6282C133.462 60.6181 136.668 71.1873 136.668 81.9993C136.668 96.4978 130.909 110.403 120.657 120.655C110.405 130.907 96.4998 136.666 82.0013 136.666Z" fill="black"/>
<path d="M81.9987 41.0005C75.6556 41.0005 69.5723 43.5202 65.0871 48.0055C60.6018 52.4907 58.082 58.574 58.082 64.9171C58.082 66.7294 58.802 68.4675 60.0835 69.749C61.365 71.0305 63.1031 71.7505 64.9154 71.7505C66.7277 71.7505 68.4658 71.0305 69.7473 69.749C71.0288 68.4675 71.7487 66.7294 71.7487 64.9171C71.7487 62.8899 72.3498 60.9081 73.4761 59.2225C74.6024 57.5369 76.2033 56.2232 78.0762 55.4474C79.9491 54.6716 82.0101 54.4686 83.9984 54.8641C85.9867 55.2596 87.8131 56.2358 89.2465 57.6693C90.68 59.1028 91.6562 60.9291 92.0518 62.9174C92.4472 64.9058 92.2443 66.9667 91.4685 68.8396C90.6927 70.7126 89.3789 72.3134 87.6933 73.4397C86.0077 74.566 84.026 75.1671 81.9987 75.1671C80.1864 75.1671 78.4483 75.8871 77.1668 77.1686C75.8853 78.4501 75.1654 80.1881 75.1654 82.0005V95.6671C75.1654 97.4794 75.8853 99.2175 77.1668 100.499C78.4483 101.781 80.1864 102.5 81.9987 102.5C83.811 102.5 85.5491 101.781 86.8306 100.499C88.1121 99.2175 88.832 97.4794 88.832 95.6671V87.7405C94.3541 86.1278 99.1071 82.5735 102.215 77.7326C105.323 72.8917 106.576 67.0906 105.744 61.3984C104.912 55.7062 102.05 50.5067 97.6866 46.7582C93.3229 43.0096 87.7513 40.9648 81.9987 41.0005Z" fill="black"/>
<path d="M82.0013 123.001C85.7752 123.001 88.8346 119.941 88.8346 116.167C88.8346 112.393 85.7752 109.334 82.0013 109.334C78.2274 109.334 75.168 112.393 75.168 116.167C75.168 119.941 78.2274 123.001 82.0013 123.001Z" fill="black"/>
</svg>
