<svg width="12" height="12" viewBox="0 0 12 12" fill="none" xmlns="http://www.w3.org/2000/svg">
<path d="M6.19005 1.52734C5.28794 1.52734 4.40609 1.79485 3.65601 2.29603C2.90594 2.79722 2.32133 3.50957 1.9761 4.34301C1.63088 5.17645 1.54056 6.09354 1.71655 6.97832C1.89254 7.86309 2.32695 8.67581 2.96484 9.3137C3.60272 9.95158 4.41544 10.386 5.30021 10.562C6.18499 10.738 7.10208 10.6477 7.93552 10.3024C8.76896 9.95721 9.48131 9.37259 9.9825 8.62252C10.4837 7.87244 10.7512 6.99059 10.7512 6.08848C10.7512 5.48951 10.6332 4.89639 10.404 4.34301C10.1748 3.78963 9.8388 3.28681 9.41526 2.86327C8.99172 2.43973 8.4889 2.10376 7.93552 1.87454C7.38214 1.64532 6.78903 1.52734 6.19005 1.52734ZM6.19005 9.7374C5.46836 9.7374 4.76288 9.52339 4.16282 9.12244C3.56276 8.7215 3.09507 8.15161 2.81889 7.48486C2.54272 6.81811 2.47046 6.08444 2.61125 5.37662C2.75204 4.6688 3.09957 4.01862 3.60988 3.50831C4.12019 2.998 4.77036 2.65048 5.47818 2.50968C6.186 2.36889 6.91968 2.44115 7.58643 2.71733C8.25318 2.99351 8.82306 3.4612 9.22401 4.06126C9.62496 4.66132 9.83896 5.3668 9.83896 6.08848C9.83896 7.05624 9.45452 7.98435 8.77022 8.66865C8.08592 9.35296 7.1578 9.7374 6.19005 9.7374Z" fill="black"/>
<path d="M6.19015 3.35159C5.76676 3.35159 5.36071 3.51978 5.06132 3.81917C4.76194 4.11855 4.59375 4.5246 4.59375 4.94799C4.59375 5.06896 4.6418 5.18498 4.72734 5.27051C4.81288 5.35605 4.9289 5.40411 5.04986 5.40411C5.17083 5.40411 5.28685 5.35605 5.37239 5.27051C5.45792 5.18498 5.50598 5.06896 5.50598 4.94799C5.50598 4.81268 5.5461 4.6804 5.62128 4.56789C5.69646 4.45538 5.80331 4.36768 5.92833 4.3159C6.05334 4.26412 6.19091 4.25057 6.32362 4.27697C6.45634 4.30337 6.57825 4.36853 6.67393 4.46421C6.76961 4.55989 6.83478 4.6818 6.86117 4.81452C6.88757 4.94723 6.87402 5.0848 6.82224 5.20981C6.77046 5.33483 6.68277 5.44168 6.57025 5.51686C6.45774 5.59204 6.32547 5.63216 6.19015 5.63216C6.06918 5.63216 5.95317 5.68022 5.86763 5.76576C5.78209 5.85129 5.73404 5.96731 5.73404 6.08828V7.00051C5.73404 7.12147 5.78209 7.23749 5.86763 7.32303C5.95317 7.40857 6.06918 7.45662 6.19015 7.45662C6.31112 7.45662 6.42713 7.40857 6.51267 7.32303C6.59821 7.23749 6.64626 7.12147 6.64626 7.00051V6.47141C7.01485 6.36377 7.33211 6.12653 7.53956 5.80341C7.74701 5.48029 7.83067 5.09307 7.77512 4.71312C7.71958 4.33318 7.52856 3.98612 7.23729 3.73591C6.94602 3.4857 6.57412 3.34921 6.19015 3.35159Z" fill="black"/>
<path d="M6.19049 8.82629C6.44239 8.82629 6.6466 8.62208 6.6466 8.37018C6.6466 8.11827 6.44239 7.91406 6.19049 7.91406C5.93858 7.91406 5.73438 8.11827 5.73438 8.37018C5.73438 8.62208 5.93858 8.82629 6.19049 8.82629Z" fill="black"/>
</svg>
