<svg width="2" height="2" viewBox="0 0 2 2" fill="none" xmlns="http://www.w3.org/2000/svg">
<g clip-path="url(#clip0_298_704)">
<path d="M0.754591 1.70059C0.828319 1.70059 0.888087 1.64082 0.888087 1.56709C0.888087 1.49336 0.828319 1.43359 0.754591 1.43359C0.680862 1.43359 0.621094 1.49336 0.621094 1.56709C0.621094 1.64082 0.680862 1.70059 0.754591 1.70059Z" stroke="black" stroke-width="0.133497" stroke-linecap="round" stroke-linejoin="round"/>
<path d="M1.55537 1.70059C1.6291 1.70059 1.68887 1.64082 1.68887 1.56709C1.68887 1.49336 1.6291 1.43359 1.55537 1.43359C1.48164 1.43359 1.42188 1.49336 1.42188 1.56709C1.42188 1.64082 1.48164 1.70059 1.55537 1.70059Z" stroke="black" stroke-width="0.133497" stroke-linecap="round" stroke-linejoin="round"/>
<path d="M0.596871 0.564211H1.75362L1.64148 1.12423C1.63538 1.15496 1.61866 1.18257 1.59426 1.20221C1.56985 1.22186 1.53931 1.2323 1.50799 1.23169H0.802456C0.769862 1.23197 0.738293 1.22031 0.713701 1.19892C0.68911 1.17752 0.673196 1.14787 0.66896 1.11555L0.567502 0.346611C0.563295 0.314521 0.547573 0.285052 0.523261 0.263687C0.49895 0.242323 0.467705 0.230518 0.43534 0.230469H0.285156" stroke="black" stroke-width="0.133497" stroke-linecap="round" stroke-linejoin="round"/>
</g>
<defs>
<clipPath id="clip0_298_704">
<rect width="1.60196" height="1.60196" fill="white" transform="translate(0.222656 0.160156)"/>
</clipPath>
</defs>
</svg>
