<svg width="22" height="21" viewBox="0 0 22 21" fill="none" xmlns="http://www.w3.org/2000/svg">
<path d="M10.9241 0.0351562C8.87788 0.0351562 6.87759 0.641939 5.1762 1.77877C3.47481 2.9156 2.14874 4.53143 1.36567 6.42191C0.582608 8.3124 0.377723 10.3926 0.776925 12.3996C1.17613 14.4065 2.16149 16.25 3.6084 17.6969C5.05532 19.1438 6.8988 20.1292 8.90572 20.5284C10.9127 20.9276 12.9929 20.7227 14.8834 19.9396C16.7739 19.1565 18.3897 17.8305 19.5265 16.1291C20.6633 14.4277 21.2701 12.4274 21.2701 10.3812C21.267 7.63817 20.176 5.00842 18.2364 3.06884C16.2969 1.12926 13.6671 0.0382424 10.9241 0.0351562ZM10.9241 19.8995C9.04158 19.8995 7.20131 19.3412 5.63603 18.2953C4.07075 17.2495 2.85077 15.7629 2.13035 14.0237C1.40993 12.2844 1.22143 10.3706 1.5887 8.52422C1.95597 6.67785 2.8625 4.98185 4.19366 3.65069C5.52482 2.31953 7.22082 1.41299 9.0672 1.04573C10.9136 0.678461 12.8274 0.866956 14.5666 1.58738C16.3059 2.30779 17.7924 3.52778 18.8383 5.09306C19.8842 6.65834 20.4424 8.49861 20.4424 10.3812C20.4396 12.9047 19.4358 15.324 17.6514 17.1085C15.867 18.8929 13.4477 19.8966 10.9241 19.8995ZM13.7429 5.58694C13.7812 5.64013 13.8064 5.70167 13.8163 5.76649C13.8262 5.83131 13.8205 5.89755 13.7998 5.95976L10.4891 15.8919C10.4544 15.996 10.3797 16.0821 10.2816 16.1312C10.1834 16.1803 10.0697 16.1884 9.96561 16.1537C9.86148 16.119 9.7754 16.0444 9.7263 15.9462C9.67721 15.848 9.66913 15.7344 9.70383 15.6302L12.833 6.24276H8.44109C8.33133 6.24276 8.22607 6.19916 8.14846 6.12155C8.07085 6.04394 8.02725 5.93867 8.02725 5.82892C8.02725 5.71916 8.07085 5.6139 8.14846 5.53629C8.22607 5.45868 8.33133 5.41508 8.44109 5.41508H13.4072C13.4727 5.41508 13.5374 5.43066 13.5958 5.46054C13.6541 5.49042 13.7046 5.53374 13.7429 5.58694Z" fill="black"/>
</svg>
