<svg width="310" height="310" viewBox="0 0 310 310" fill="none" xmlns="http://www.w3.org/2000/svg">
<path d="M155 0C124.344 0 94.3763 9.09059 68.8867 26.1222C43.3971 43.1538 23.5303 67.3615 11.7987 95.684C0.0671566 124.007 -3.00236 155.172 2.97835 185.239C8.95906 215.306 23.7214 242.924 45.3985 264.601C67.0756 286.279 94.694 301.041 124.761 307.022C154.828 313.002 185.993 309.933 214.316 298.201C242.638 286.47 266.846 266.603 283.878 241.113C300.909 215.624 310 185.656 310 155C309.954 113.906 293.609 74.5076 264.55 45.4495C235.492 16.3914 196.094 0.0462352 155 0ZM155 297.6C126.796 297.6 99.2262 289.237 75.7757 273.568C52.3253 257.898 34.0479 235.627 23.2548 209.571C12.4618 183.514 9.63783 154.842 15.1401 127.18C20.6423 99.5184 34.2237 74.1095 54.1666 54.1666C74.1096 34.2236 99.5185 20.6423 127.18 15.14C154.842 9.63776 183.514 12.4617 209.571 23.2548C235.627 34.0478 257.898 52.3252 273.568 75.7757C289.237 99.2261 297.6 126.796 297.6 155C297.557 192.807 282.519 229.053 255.786 255.786C229.053 282.519 192.807 297.557 155 297.6ZM155 130.2C149.867 130.198 144.764 130.996 139.877 132.566L172.722 77.5787C173.565 76.1672 173.813 74.4786 173.411 72.8844C173.009 71.2902 171.99 69.921 170.579 69.0779C169.167 68.2349 167.479 67.9871 165.884 68.389C164.29 68.791 162.921 69.8098 162.078 71.2213L112.092 154.905C112.027 155.014 111.992 155.13 111.935 155.241C106.538 164.715 104.414 175.703 105.893 186.506C107.371 197.308 112.369 207.322 120.113 214.998C127.857 222.674 137.915 227.582 148.73 228.965C159.545 230.348 170.515 228.127 179.941 222.646C189.366 217.165 196.723 208.731 200.871 198.647C205.02 188.564 205.729 177.395 202.889 166.868C200.049 156.341 193.818 147.044 185.161 140.415C176.504 133.786 165.903 130.196 155 130.2ZM155 217C147.643 217 140.45 214.818 134.333 210.731C128.215 206.643 123.447 200.833 120.632 194.036C117.816 187.238 117.079 179.759 118.515 172.543C119.95 165.326 123.493 158.698 128.696 153.496C133.898 148.293 140.527 144.75 147.743 143.315C154.959 141.879 162.438 142.616 169.236 145.432C176.033 148.247 181.843 153.015 185.931 159.133C190.018 165.25 192.2 172.442 192.2 179.8C192.189 189.663 188.266 199.118 181.292 206.092C174.318 213.066 164.863 216.989 155 217Z" fill="black"/>
</svg>
