<svg width="310" height="310" viewBox="0 0 310 310" fill="none" xmlns="http://www.w3.org/2000/svg">
<path d="M155 0C124.344 0 94.3763 9.09059 68.8867 26.1222C43.3971 43.1538 23.5303 67.3615 11.7987 95.684C0.0671566 124.007 -3.00236 155.172 2.97835 185.239C8.95906 215.306 23.7214 242.924 45.3985 264.601C67.0756 286.279 94.694 301.041 124.761 307.022C154.828 313.002 185.993 309.933 214.316 298.201C242.638 286.47 266.846 266.603 283.878 241.113C300.909 215.624 310 185.656 310 155C309.954 113.906 293.609 74.5076 264.55 45.4495C235.492 16.3914 196.094 0.0462352 155 0ZM155 297.6C126.796 297.6 99.2262 289.237 75.7757 273.568C52.3253 257.898 34.0479 235.627 23.2548 209.571C12.4618 183.514 9.63783 154.842 15.1401 127.18C20.6423 99.5184 34.2237 74.1095 54.1666 54.1666C74.1096 34.2236 99.5185 20.6423 127.18 15.14C154.842 9.63776 183.514 12.4617 209.571 23.2548C235.627 34.0478 257.898 52.3252 273.568 75.7757C289.237 99.2261 297.6 126.796 297.6 155C297.557 192.807 282.519 229.053 255.786 255.786C229.053 282.519 192.807 297.557 155 297.6ZM197.23 83.1747C197.804 83.9717 198.181 84.8936 198.329 85.8647C198.477 86.8358 198.393 87.8282 198.082 88.7602L148.482 237.56C147.962 239.12 146.844 240.41 145.373 241.145C143.903 241.881 142.2 242.002 140.64 241.482C139.08 240.962 137.79 239.844 137.055 238.373C136.319 236.902 136.198 235.2 136.718 233.64L183.598 93H117.8C116.156 93 114.579 92.3468 113.416 91.184C112.253 90.0213 111.6 88.4443 111.6 86.8C111.6 85.1556 112.253 83.5786 113.416 82.4159C114.579 81.2532 116.156 80.6 117.8 80.6H192.2C193.182 80.6 194.151 80.8334 195.025 81.2811C195.9 81.7287 196.655 82.3778 197.23 83.1747Z" fill="black"/>
</svg>
