<svg width="22" height="21" viewBox="0 0 22 21" fill="none" xmlns="http://www.w3.org/2000/svg">
<path d="M10.8577 0.28125C8.81148 0.28125 6.81118 0.888032 5.10979 2.02487C3.4084 3.1617 2.08233 4.77752 1.29927 6.66801C0.516201 8.55849 0.311316 10.6387 0.710519 12.6457C1.10972 14.6526 2.09508 16.4961 3.542 17.943C4.98891 19.3899 6.83239 20.3752 8.83932 20.7745C10.8462 21.1737 12.9265 20.9688 14.817 20.1857C16.7074 19.4026 18.3233 18.0766 19.4601 16.3752C20.5969 14.6738 21.2037 12.6735 21.2037 10.6272C21.2006 7.88427 20.1096 5.25451 18.17 3.31493C16.2305 1.37535 13.6007 0.284336 10.8577 0.28125ZM10.8577 20.1456C8.97518 20.1456 7.13491 19.5873 5.56963 18.5414C4.00435 17.4956 2.78436 16.009 2.06394 14.2698C1.34352 12.5305 1.15503 10.6167 1.5223 8.77032C1.88956 6.92394 2.79609 5.22794 4.12725 3.89678C5.45842 2.56562 7.15442 1.65909 9.00079 1.29182C10.8472 0.924555 12.761 1.11305 14.5002 1.83347C16.2395 2.55389 17.726 3.77387 18.7719 5.33915C19.8178 6.90443 20.376 8.7447 20.376 10.6272C20.3732 13.1508 19.3694 15.5701 17.585 17.3545C15.8006 19.139 13.3813 20.1427 10.8577 20.1456ZM13.3408 8.97189V15.5933C13.3408 15.7031 13.2972 15.8083 13.2196 15.886C13.1419 15.9636 13.0367 16.0072 12.9269 16.0072C12.8172 16.0072 12.7119 15.9636 12.6343 15.886C12.5567 15.8083 12.5131 15.7031 12.5131 15.5933V12.6964H7.96084C7.89465 12.6965 7.82943 12.6806 7.77064 12.6502C7.71185 12.6198 7.66122 12.5757 7.62299 12.5217C7.58475 12.4676 7.56004 12.4052 7.55091 12.3397C7.54179 12.2741 7.54852 12.2073 7.57054 12.1449L10.0534 5.10962C10.0715 5.05836 10.0995 5.01117 10.1358 4.97074C10.1721 4.93031 10.216 4.89743 10.2651 4.87397C10.3141 4.85052 10.3673 4.83695 10.4215 4.83404C10.4758 4.83113 10.5301 4.83895 10.5814 4.85703C10.6326 4.87512 10.6798 4.90312 10.7203 4.93944C10.7607 4.97576 10.7936 5.01969 10.817 5.06872C10.8405 5.11775 10.8541 5.17092 10.857 5.2252C10.8599 5.27947 10.8521 5.33379 10.834 5.38504L8.54574 11.8688H12.5131V8.97189C12.5131 8.86213 12.5567 8.75687 12.6343 8.67926C12.7119 8.60165 12.8172 8.55805 12.9269 8.55805C13.0367 8.55805 13.1419 8.60165 13.2196 8.67926C13.2972 8.75687 13.3408 8.86213 13.3408 8.97189Z" fill="black"/>
</svg>
