<svg width="9" height="9" viewBox="0 0 9 9" fill="none" xmlns="http://www.w3.org/2000/svg">
<path d="M7.63389 4.27811H4.73033V1.37455C4.73033 1.24621 4.67935 1.12312 4.58859 1.03236C4.49784 0.94161 4.37475 0.890625 4.24641 0.890625C4.11806 0.890625 3.99497 0.94161 3.90422 1.03236C3.81347 1.12312 3.76248 1.24621 3.76248 1.37455V4.27811H0.858926C0.730581 4.27811 0.607492 4.32909 0.516739 4.41984C0.425985 4.5106 0.375 4.63369 0.375 4.76203C0.375 4.89038 0.425985 5.01347 0.516739 5.10422C0.607492 5.19497 0.730581 5.24596 0.858926 5.24596H3.76248V8.14951C3.76248 8.27786 3.81347 8.40095 3.90422 8.4917C3.99497 8.58245 4.11806 8.63344 4.24641 8.63344C4.37475 8.63344 4.49784 8.58245 4.58859 8.4917C4.67935 8.40095 4.73033 8.27786 4.73033 8.14951V5.24596H7.63389C7.76223 5.24596 7.88532 5.19497 7.97608 5.10422C8.06683 5.01347 8.11781 4.89038 8.11781 4.76203C8.11781 4.63369 8.06683 4.5106 7.97608 4.41984C7.88532 4.32909 7.76223 4.27811 7.63389 4.27811Z" fill="#231F20"/>
</svg>
