<svg width="310" height="310" viewBox="0 0 310 310" fill="none" xmlns="http://www.w3.org/2000/svg">
<path d="M155 0C124.344 0 94.3763 9.09059 68.8867 26.1222C43.3971 43.1538 23.5303 67.3615 11.7987 95.684C0.0671566 124.007 -3.00236 155.172 2.97835 185.239C8.95906 215.306 23.7214 242.924 45.3985 264.601C67.0756 286.279 94.694 301.041 124.761 307.022C154.828 313.002 185.993 309.933 214.316 298.201C242.638 286.47 266.846 266.603 283.878 241.113C300.909 215.624 310 185.656 310 155C309.954 113.906 293.609 74.5076 264.55 45.4495C235.492 16.3914 196.094 0.0462352 155 0ZM155 297.6C126.796 297.6 99.2262 289.237 75.7757 273.568C52.3253 257.898 34.0479 235.627 23.2548 209.571C12.4618 183.514 9.63783 154.842 15.1401 127.18C20.6423 99.5184 34.2237 74.1095 54.1666 54.1666C74.1096 34.2236 99.5185 20.6423 127.18 15.14C154.842 9.63776 183.514 12.4617 209.571 23.2548C235.627 34.0478 257.898 52.3252 273.568 75.7757C289.237 99.2261 297.6 126.796 297.6 155C297.557 192.807 282.519 229.053 255.786 255.786C229.053 282.519 192.807 297.557 155 297.6ZM192.2 130.2V229.4C192.2 231.044 191.547 232.621 190.384 233.784C189.221 234.947 187.644 235.6 186 235.6C184.356 235.6 182.779 234.947 181.616 233.784C180.453 232.621 179.8 231.044 179.8 229.4V186H111.6C110.608 186 109.631 185.762 108.751 185.307C107.87 184.851 107.111 184.191 106.538 183.381C105.966 182.572 105.595 181.637 105.459 180.655C105.322 179.673 105.423 178.672 105.753 177.737L142.95 72.3369C143.221 71.569 143.64 70.862 144.184 70.2562C144.728 69.6505 145.387 69.1579 146.121 68.8065C146.856 68.4551 147.652 68.2518 148.465 68.2083C149.278 68.1647 150.092 68.2817 150.86 68.5527C151.628 68.8236 152.335 69.2431 152.941 69.7873C153.546 70.3315 154.039 70.9896 154.39 71.7242C154.742 72.4587 154.945 73.2553 154.989 74.0684C155.032 74.8815 154.915 75.6952 154.644 76.4631L120.363 173.6H179.8V130.2C179.8 128.556 180.453 126.979 181.616 125.816C182.779 124.653 184.356 124 186 124C187.644 124 189.221 124.653 190.384 125.816C191.547 126.979 192.2 128.556 192.2 130.2Z" fill="black"/>
</svg>
