<svg width="22" height="22" viewBox="0 0 22 22" fill="none" xmlns="http://www.w3.org/2000/svg">
<path d="M10.8968 0.425781C8.85054 0.425781 6.85025 1.03256 5.14886 2.1694C3.44747 3.30623 2.12139 4.92205 1.33833 6.81254C0.555264 8.70302 0.350379 10.7833 0.749581 12.7902C1.14878 14.7971 2.13415 16.6406 3.58106 18.0875C5.02797 19.5344 6.87145 20.5198 8.87838 20.919C10.8853 21.3182 12.9655 21.1133 14.856 20.3302C16.7465 19.5472 18.3623 18.2211 19.4992 16.5197C20.636 14.8183 21.2428 12.818 21.2428 10.7718C21.2397 8.0288 20.1487 5.39905 18.2091 3.45946C16.2695 1.51988 13.6398 0.428867 10.8968 0.425781ZM10.8968 20.2901C9.01424 20.2901 7.17397 19.7319 5.60869 18.686C4.04341 17.6401 2.82342 16.1535 2.103 14.4143C1.38259 12.675 1.19409 10.7612 1.56136 8.91485C1.92862 7.06848 2.83516 5.37247 4.16632 4.04131C5.49748 2.71015 7.19348 1.80362 9.03985 1.43635C10.8862 1.06909 12.8 1.25758 14.5393 1.978C16.2785 2.69842 17.7651 3.91841 18.811 5.48369C19.8569 7.04896 20.4151 8.88923 20.4151 10.7718C20.4122 13.2953 19.4085 15.7147 17.6241 17.4991C15.8397 19.2835 13.4203 20.2872 10.8968 20.2901ZM10.8968 9.11642C10.5541 9.1163 10.2136 9.16957 9.88734 9.27434L12.0797 5.60403C12.136 5.50982 12.1525 5.39711 12.1257 5.2907C12.0989 5.18429 12.0309 5.09289 11.9366 5.03662C11.8424 4.98035 11.7297 4.96381 11.6233 4.99064C11.5169 5.01747 11.4255 5.08547 11.3692 5.17969L8.03274 10.7654C8.02841 10.7727 8.02608 10.7805 8.02224 10.7878C7.66201 11.4202 7.52027 12.1537 7.61895 12.8747C7.71764 13.5958 8.05124 14.2642 8.56814 14.7766C9.08503 15.2889 9.75638 15.6165 10.4783 15.7088C11.2002 15.8011 11.9324 15.6529 12.5615 15.287C13.1907 14.9212 13.6817 14.3582 13.9586 13.6852C14.2355 13.0121 14.2828 12.2666 14.0933 11.5639C13.9037 10.8613 13.4878 10.2407 12.91 9.79825C12.3321 9.35581 11.6246 9.11617 10.8968 9.11642ZM10.8968 14.9102C10.4057 14.9102 9.92562 14.7646 9.51728 14.4917C9.10895 14.2189 8.79069 13.8311 8.60276 13.3774C8.41482 12.9236 8.36565 12.4244 8.46146 11.9427C8.55726 11.4611 8.79375 11.0186 9.14101 10.6714C9.48827 10.3241 9.93071 10.0876 10.4124 9.99181C10.894 9.896 11.3933 9.94518 11.847 10.1331C12.3007 10.321 12.6885 10.6393 12.9614 11.0476C13.2342 11.456 13.3798 11.936 13.3798 12.4271C13.3791 13.0855 13.1172 13.7166 12.6517 14.1821C12.1862 14.6476 11.5551 14.9094 10.8968 14.9102Z" fill="black"/>
</svg>
